<?xml version="1.0" encoding="utf-8"?>
<!-- Generator: Adobe Illustrator 21.1.0, SVG Export Plug-In . SVG Version: 6.00 Build 0)  -->
<svg version="1.1" id="Layer_1" xmlns="http://www.w3.org/2000/svg" xmlns:xlink="http://www.w3.org/1999/xlink" x="0px" y="0px"
	 viewBox="0 0 120 120" style="enable-background:new 0 0 120 120;" xml:space="preserve" width="120px" height="120px">
<style type="text/css">
	.st0{fill:#231A1C;}
	.st1{fill:#FFFFFF;}
	.st2{fill:#80BE2D;}
</style>
<g>
	<path class="st0" d="M9.8,104.3L9.8,104.3c0-0.7-0.5-1.2-1.4-1.2H4.7v2.4h3.7C9.3,105.6,9.8,105.1,9.8,104.3 M9.5,98.8L9.5,98.8
		c0-0.7-0.5-1.1-1.3-1.1H4.7v2.3h3.6C9,99.9,9.5,99.5,9.5,98.8z M0.9,108.8V94.4h8.2c2.9,0,4.2,1.9,4.2,3.7c0,1.8-1.1,3-2.5,3.3
		c1.5,0.2,2.7,1.7,2.7,3.5c0,2.1-1.4,3.9-4.2,3.9H0.9z"/>
	<path class="st0" d="M26.5,101.6L26.5,101.6c0-2.4-1.5-4.2-3.9-4.2c-2.4,0-3.9,1.8-3.9,4.2c0,2.3,1.6,4.2,3.9,4.2
		C24.9,105.8,26.5,104,26.5,101.6 M14.8,101.6c0-4.4,3.3-7.5,7.7-7.5c4.4,0,7.7,3.1,7.7,7.5c0,4.4-3.3,7.5-7.7,7.5
		C18.1,109.1,14.8,106,14.8,101.6z"/>
	<polygon class="st0" points="42,108.8 35.9,100.5 35.9,108.8 32.2,108.8 32.2,94.4 36,94.4 41.8,102.3 41.8,94.4 45.6,94.4 
		45.6,108.8 	"/>
	<path class="st0" d="M54.5,98.1L54.5,98.1l-1.8,5.4h3.7L54.5,98.1z M58,108.8l-0.7-2.1h-5.7l-0.7,2.1h-4.2l5.4-14.4h4.7l5.4,14.4
		H58z"/>
	<path class="st0" d="M62.5,106.8l2-2.9c1,1,2.6,1.9,4.6,1.9c1.3,0,2-0.4,2-1.1c0-1.9-8.2-0.3-8.2-5.9c0-2.4,2-4.6,5.7-4.6
		c2.3,0,4.3,0.7,5.9,2l-2,2.8c-1.2-1-2.8-1.5-4.2-1.5c-1.1,0-1.6,0.4-1.6,1c0,1.8,8.2,0.4,8.2,5.8c0,2.9-2.1,4.8-6,4.8
		C66,109.1,63.9,108.2,62.5,106.8"/>
	<rect x="76.8" y="94.4" class="st0" width="3.7" height="14.4"/>
	<polygon class="st0" points="83.1,108.8 83.1,94.4 86.9,94.4 86.9,105.6 92.7,105.6 92.7,108.8 	"/>
	<path class="st0" d="M101.2,98.1L101.2,98.1l-1.8,5.4h3.7L101.2,98.1z M104.7,108.8l-0.7-2.1h-5.7l-0.7,2.1h-4.2l5.4-14.4h4.7
		l5.4,14.4H104.7z"/>
	<path class="st0" d="M24.9,115.6L24.9,115.6c0-0.6-0.4-1-1-1h-1.5v1.9h1.5C24.5,116.6,24.9,116.2,24.9,115.6 M21.3,119.8v-6.1H24
		c1.3,0,2,0.9,2,1.9c0,1-0.7,1.9-2,1.9h-1.6v2.3H21.3z"/>
	<polygon class="st0" points="30,119.8 30,113.7 31.1,113.7 31.1,118.8 33.8,118.8 33.8,119.8 	"/>
	<path class="st0" d="M40.6,114.8L40.6,114.8l-1.1,2.9h2.2L40.6,114.8z M42.4,119.8l-0.4-1.2h-2.8l-0.4,1.2h-1.2l2.4-6.1h1.3
		l2.4,6.1H42.4z"/>
	<polygon class="st0" points="51.8,119.8 48.7,115.4 48.7,119.8 47.6,119.8 47.6,113.7 48.7,113.7 51.8,117.9 51.8,113.7 
		52.9,113.7 52.9,119.8 	"/>
	<polygon class="st0" points="58.8,119.8 58.8,114.6 57,114.6 57,113.7 61.7,113.7 61.7,114.6 59.9,114.6 59.9,119.8 	"/>
	<polygon class="st0" points="65.8,119.8 65.8,113.7 70,113.7 70,114.6 66.9,114.6 66.9,116.2 69.9,116.2 69.9,117.1 66.9,117.1 
		66.9,118.8 70,118.8 70,119.8 	"/>
	<path class="st0" d="M78,115.6L78,115.6c0-0.6-0.4-1-1-1h-1.5v1.9h1.5C77.5,116.6,78,116.2,78,115.6 M77.9,119.8l-1.3-2.3h-1.1v2.3
		h-1.1v-6.1h2.7c1.2,0,2,0.8,2,1.9c0,1.1-0.7,1.7-1.5,1.8l1.5,2.4H77.9z"/>
	<path class="st0" d="M83,118.9l0.6-0.8c0.4,0.4,1.1,0.8,1.9,0.8c0.9,0,1.2-0.4,1.2-0.8c0-1.3-3.5-0.5-3.5-2.7c0-1,0.9-1.8,2.2-1.8
		c0.9,0,1.7,0.3,2.3,0.9l-0.6,0.8c-0.5-0.5-1.1-0.7-1.8-0.7c-0.6,0-1,0.3-1,0.8c0,1.1,3.5,0.4,3.5,2.7c0,1-0.7,1.9-2.4,1.9
		C84.3,119.9,83.5,119.5,83,118.9"/>
	<rect x="0.9" y="-0.1" class="st0" width="107" height="87.5"/>
	<rect x="11.3" y="10.2" class="st1" width="86.3" height="66.8"/>
	<rect x="28.1" y="37.9" class="st0" width="52.7" height="10.4"/>
	<rect x="34.5" y="64" class="st0" width="39.7" height="10.4"/>
	<path class="st2" d="M71.8,35.2c0.1-0.5,0.1-1,0.1-1.6c0-5.8-4.7-10.5-10.5-10.5c-2.7,0-5.2,1.9-7,3.6c-1.9-1.7-4.3-3.6-7-3.6
		c-5.8,0-10.5,4.7-10.5,10.5c0,0.5,0.1,1,0.1,1.6H71.8z"/>
	<path class="st0" d="M61.7,50.9c-2.6,2-5.2,3.4-7.3,4c-2-0.6-4.7-2-7.3-4H31.3v10.4h46.2V50.9H61.7z"/>
	<path class="st0" d="M115.9,12.6L115.9,12.6h-1.2v1.6h1.2c0.4,0,0.8-0.3,0.8-0.8C116.8,12.9,116.3,12.6,115.9,12.6 M116.7,16.6
		L116.7,16.6l-1.2-1.8h-0.7v1.8h-0.7V12h1.9c0.8,0,1.6,0.5,1.6,1.4c0,1-0.9,1.4-1.2,1.4l1.2,1.8H116.7z M115.6,10.9L115.6,10.9
		c-1.9,0-3.4,1.5-3.4,3.4c0,1.8,1.5,3.4,3.4,3.4c1.9,0,3.4-1.5,3.4-3.4C119,12.4,117.5,10.9,115.6,10.9z M115.6,18.3
		c-2.2,0-4-1.8-4-4c0-2.2,1.8-4,4-4c2.2,0,4,1.8,4,4C119.6,16.5,117.8,18.3,115.6,18.3z"/>
</g>
</svg>
